<svg id="Layer_1" data-name="Layer 1" xmlns="http://www.w3.org/2000/svg" viewBox="0 0 1172.79 73.71"><defs><style>.cls-1{fill:#062847;}</style></defs><title>Share_My_Story_Logo</title><path class="cls-1" d="M27.12,481.13v.46a4,4,0,0,0,.72,2.13,7.37,7.37,0,0,0,2.19,2.1,13.4,13.4,0,0,0,3.73,1.59,20.27,20.27,0,0,0,5.37.64q5.1,0,7-1.41c1.31-.94,2-1.93,2-3q0-2.28-2.82-3.91A55,55,0,0,0,36,475.94q-4.28-1.37-8.87-3.23a40.49,40.49,0,0,1-8.41-4.59,24,24,0,0,1-6.33-6.65,17,17,0,0,1-2.5-9.37A19.92,19.92,0,0,1,12,443,20.17,20.17,0,0,1,17.7,436a26.83,26.83,0,0,1,8.78-4.41,38.46,38.46,0,0,1,11.19-1.55,40,40,0,0,1,11.51,1.59,27.88,27.88,0,0,1,9.2,4.6,22.13,22.13,0,0,1,6.09,7.23A20,20,0,0,1,66.7,453v1H49v-.63a5.84,5.84,0,0,0-.69-2.64,7.34,7.34,0,0,0-2-2.46,10.8,10.8,0,0,0-3.42-1.77,14.9,14.9,0,0,0-4.77-.69c-3.1,0-5.31.5-6.65,1.5a4.23,4.23,0,0,0-2,3.33c0,1.39.9,2.58,2.69,3.54a63.56,63.56,0,0,0,9.05,3.64c2.43.86,5.19,1.9,8.28,3.14a42.51,42.51,0,0,1,8.69,4.74,26.75,26.75,0,0,1,6.83,7,17.5,17.5,0,0,1,2.77,10,18.43,18.43,0,0,1-8.05,15.74,27.93,27.93,0,0,1-8.92,4,43.71,43.71,0,0,1-11.24,1.37,46.34,46.34,0,0,1-11.87-1.46,30.61,30.61,0,0,1-9.56-4.23,20.56,20.56,0,0,1-6.37-6.87A18.55,18.55,0,0,1,9.37,482v-.82Z" transform="translate(-9.37 -430.08)"/><path class="cls-1" d="M162,431.44v71h-18.2V476H114.84v26.39H96.73v-71h18.11V459h28.94V431.44Z" transform="translate(-9.37 -430.08)"/><path class="cls-1" d="M235.14,431.44l28.67,71H244l-3.92-10.37H212.12l-3.92,10.37H188.37l28.75-71Zm-9,23.3-7.82,20.84h15.56Z" transform="translate(-9.37 -430.08)"/><path class="cls-1" d="M324.87,431.44a31.25,31.25,0,0,1,11.83,2.05,22.18,22.18,0,0,1,13.14,13.88,30.92,30.92,0,0,1,1.6,10,30.47,30.47,0,0,1-.87,7.28,25.35,25.35,0,0,1-2.59,6.6,23.82,23.82,0,0,1-4.37,5.55,22.66,22.66,0,0,1-6.19,4.14l15.38,21.47H331.05l-13.46-19H308.3v19H290.19v-71ZM308.3,448v18.92h15.56a12.37,12.37,0,0,0,4.65-.77,8.44,8.44,0,0,0,3.09-2.05,7.8,7.8,0,0,0,1.73-3,11.8,11.8,0,0,0,.54-3.55,10.27,10.27,0,0,0-2.27-6.82q-2.28-2.73-7.74-2.73Z" transform="translate(-9.37 -430.08)"/><path class="cls-1" d="M380.83,431.44h54.51V449.1H399v10.19h29.85v16.47H399v9.1h36.31v17.56H380.83Z" transform="translate(-9.37 -430.08)"/><path class="cls-1" d="M511.59,502.42v-71h18.3l20.47,44.87,20.57-44.87h18.29v71H571.11V469l-14.74,30.66H544.45L529.7,469v33.39Z" transform="translate(-9.37 -430.08)"/><path class="cls-1" d="M652.64,457.2l15.75-25.76h21.47l-28.12,45v26H643.63v-26l-28-45H637Z" transform="translate(-9.37 -430.08)"/><path class="cls-1" d="M772.21,481.13v.46a4,4,0,0,0,.73,2.13,7.37,7.37,0,0,0,2.19,2.1,13.4,13.4,0,0,0,3.73,1.59,20.16,20.16,0,0,0,5.37.64q5.09,0,7-1.41c1.3-.94,2-1.93,2-3,0-1.52-1-2.82-2.82-3.91a55.41,55.41,0,0,0-9.29-3.83q-4.27-1.37-8.87-3.23a40.83,40.83,0,0,1-8.42-4.59,24,24,0,0,1-6.32-6.65,17,17,0,0,1-2.5-9.37,20,20,0,0,1,2-9.14A20.31,20.31,0,0,1,762.8,436a26.73,26.73,0,0,1,8.78-4.41,38.41,38.41,0,0,1,11.19-1.55,40,40,0,0,1,11.51,1.59,27.83,27.83,0,0,1,9.19,4.6,22.16,22.16,0,0,1,6.1,7.23A20,20,0,0,1,811.8,453v1H794.05v-.63a5.82,5.82,0,0,0-.68-2.64,7.46,7.46,0,0,0-2-2.46,10.8,10.8,0,0,0-3.42-1.77,14.92,14.92,0,0,0-4.78-.69q-4.64,0-6.64,1.5a4.23,4.23,0,0,0-2,3.33c0,1.39.89,2.58,2.68,3.54a63.81,63.81,0,0,0,9.06,3.64c2.42.86,5.19,1.9,8.28,3.14a42.77,42.77,0,0,1,8.69,4.74,26.91,26.91,0,0,1,6.83,7,17.5,17.5,0,0,1,2.77,10,18.43,18.43,0,0,1-8,15.74,27.93,27.93,0,0,1-8.92,4,43.76,43.76,0,0,1-11.24,1.37,46.36,46.36,0,0,1-11.88-1.46,30.55,30.55,0,0,1-9.55-4.23,20.56,20.56,0,0,1-6.37-6.87,18.45,18.45,0,0,1-2.32-9.28v-.82Z" transform="translate(-9.37 -430.08)"/><path class="cls-1" d="M837.46,431.44h62.43V449.1H877.77v53.32h-18.2V449.1H837.46Z" transform="translate(-9.37 -430.08)"/><path class="cls-1" d="M924,466.93a34.63,34.63,0,0,1,3-14.33,37.83,37.83,0,0,1,8.15-11.69,38.51,38.51,0,0,1,12-7.92,37.88,37.88,0,0,1,29.12,0,38.62,38.62,0,0,1,12,7.92,37,37,0,0,1,8.1,11.69,36.19,36.19,0,0,1,0,28.67,37,37,0,0,1-8.1,11.69,38.62,38.62,0,0,1-12,7.92,37.88,37.88,0,0,1-29.12,0,38.51,38.51,0,0,1-12-7.92A37.83,37.83,0,0,1,927,481.27,34.64,34.64,0,0,1,924,466.93Zm18.38,0a19.25,19.25,0,0,0,1.5,7.56,18.79,18.79,0,0,0,4.14,6.14,20,20,0,0,0,6.15,4.1,18.81,18.81,0,0,0,7.5,1.5,19.09,19.09,0,0,0,7.6-1.5,19.37,19.37,0,0,0,6.1-4.1,19.52,19.52,0,0,0,0-27.39,19.37,19.37,0,0,0-6.1-4.1,19.09,19.09,0,0,0-7.6-1.5,18.81,18.81,0,0,0-7.5,1.5,20,20,0,0,0-6.15,4.1,18.79,18.79,0,0,0-4.14,6.14A19.23,19.23,0,0,0,942.38,466.93Z" transform="translate(-9.37 -430.08)"/><path class="cls-1" d="M1062.5,431.44a31.21,31.21,0,0,1,11.83,2.05,22.23,22.23,0,0,1,13.15,13.88,31.19,31.19,0,0,1,1.59,10,30.47,30.47,0,0,1-.86,7.28,25.71,25.71,0,0,1-2.59,6.6,24.09,24.09,0,0,1-4.37,5.55,22.66,22.66,0,0,1-6.19,4.14l15.38,21.47h-21.75l-13.47-19h-9.28v19h-18.11v-71ZM1045.94,448v18.92h15.56a12.28,12.28,0,0,0,4.64-.77,8.4,8.4,0,0,0,3.1-2.05,7.78,7.78,0,0,0,1.72-3,11.5,11.5,0,0,0,.55-3.55,10.32,10.32,0,0,0-2.27-6.82Q1067,448,1061.5,448Z" transform="translate(-9.37 -430.08)"/><path class="cls-1" d="M1145,457.2l15.74-25.76h21.48l-28.12,45v26h-18.11v-26l-28-45h21.38Z" transform="translate(-9.37 -430.08)"/></svg>